<svg xmlns="http://www.w3.org/2000/svg" viewBox="0 0 1254 1254" width="1254" height="1254"><g transform="translate(323.68586387434556 205) scale(0.643979057591623) translate(-213 -175)"><g fill="#0F3463"><path d="M285 175 L855 175 A300 300 0 0 1 1155 475 L1155 605 A300 300 0 0 1 855 905 L790 905 C770 905 690 932 640 975 L640 825 Q640 800 665 800 L805 800 A230 230 0 0 0 1035 570 L1035 510 A230 230 0 0 0 805 280 L650 280 C610 280 585 300 565 318 L285 570 Z"/><circle cx="575" cy="400" r="38"/><circle cx="681" cy="400" r="38"/><circle cx="787" cy="400" r="38"/><circle cx="575" cy="496" r="38"/><circle cx="681" cy="496" r="38"/><circle cx="787" cy="496" r="38"/><circle cx="893" cy="496" r="38"/><circle cx="575" cy="592" r="38"/><circle cx="681" cy="592" r="38"/><circle cx="787" cy="592" r="38"/><circle cx="893" cy="592" r="38"/><circle cx="681" cy="688" r="38"/><circle cx="787" cy="688" r="38"/><circle cx="893" cy="688" r="38"/><rect x="213" y="955" width="112" height="175" rx="14"/><rect x="348" y="835" width="112" height="295" rx="14"/><rect x="483" y="695" width="117" height="435" rx="14"/></g></g><g transform="translate(171.4 1010)"><g fill="#0F3463"><path transform="translate(0.0 0) scale(0.21500 -0.21500)" d="M315 282H189V0H75V695H315Q395 695 450.5 667.5Q506 640 533.5 593.0Q561 546 561 488Q561 435 536.0 388.0Q511 341 456.0 311.5Q401 282 315 282ZM444 488Q444 602 315 602H189V375H315Q380 375 412.0 404.5Q444 434 444 488Z"/><path transform="translate(127.9 0) scale(0.21500 -0.21500)" d="M297 560Q362 560 410.5 534.5Q459 509 488 471V551H603V0H488V82Q459 43 409.0 17.0Q359 -9 295 -9Q224 -9 165.0 27.5Q106 64 71.5 129.5Q37 195 37 278Q37 361 71.5 425.0Q106 489 165.5 524.5Q225 560 297 560ZM321 461Q277 461 239.0 439.5Q201 418 177.5 376.5Q154 335 154 278Q154 221 177.5 178.0Q201 135 239.5 112.5Q278 90 321 90Q365 90 403.0 112.0Q441 134 464.5 176.5Q488 219 488 276Q488 333 464.5 375.0Q441 417 403.0 439.0Q365 461 321 461Z"/><path transform="translate(273.7 0) scale(0.21500 -0.21500)" d="M298 560Q352 560 404.5 536.5Q457 513 488 474V740H603V0H488V83Q460 43 410.5 17.0Q361 -9 297 -9Q225 -9 165.5 27.5Q106 64 71.5 129.5Q37 195 37 278Q37 361 71.5 425.0Q106 489 165.5 524.5Q225 560 298 560ZM321 461Q277 461 239.0 439.5Q201 418 177.5 376.5Q154 335 154 278Q154 221 177.5 178.0Q201 135 239.5 112.5Q278 90 321 90Q365 90 403.0 112.0Q441 134 464.5 176.5Q488 219 488 276Q488 333 464.5 375.0Q441 417 403.0 439.0Q365 461 321 461Z"/><path transform="translate(419.5 0) scale(0.21500 -0.21500)" d="M576 233H155Q160 167 204.0 127.0Q248 87 312 87Q404 87 442 164H565Q540 88 474.5 39.5Q409 -9 312 -9Q233 -9 170.5 26.5Q108 62 72.5 126.5Q37 191 37 276Q37 361 71.5 425.5Q106 490 168.5 525.0Q231 560 312 560Q390 560 451.0 526.0Q512 492 546.0 430.5Q580 369 580 289Q580 258 576 233ZM461 325Q460 388 416.0 426.0Q372 464 307 464Q248 464 206.0 426.5Q164 389 156 325Z"/><path transform="translate(552.1 0) scale(0.21500 -0.21500)" d="M189 740V0H75V740Z"/><path transform="translate(613.2 0) scale(0.21500 -0.21500)" d="M693 351Q693 248 647.5 168.0Q602 88 518.5 44.0Q435 0 325 0H62V702H325Q436 702 519.0 658.0Q602 614 647.5 534.5Q693 455 693 351ZM519 351Q519 448 465.0 502.0Q411 556 314 556H233V148H314Q411 148 465.0 201.0Q519 254 519 351Z"/><path transform="translate(769.5 0) scale(0.21500 -0.21500)" d="M622 191Q622 103 560.5 51.5Q499 0 389 0H62V702H378Q485 702 545.5 653.0Q606 604 606 520Q606 458 573.5 417.0Q541 376 487 360Q548 347 585.0 299.5Q622 252 622 191ZM233 418H345Q387 418 409.5 436.5Q432 455 432 491Q432 527 409.5 546.0Q387 565 345 565H233ZM449 214Q449 251 424.5 272.0Q400 293 357 293H233V138H359Q402 138 425.5 157.5Q449 177 449 214Z"/></g></g></svg>
